<svg width="288" height="288" viewBox="0 0 288 288" xmlns="http://www.w3.org/2000/svg" xmlns:xlink="http://www.w3.org/1999/xlink">
    <linearGradient id="linearGradient1" x1="144" y1="0" x2="144" y2="288" gradientUnits="userSpaceOnUse">
        <stop offset="0" stop-color="#ffffff" stop-opacity="1"/>
        <stop offset="1" stop-color="#9d9e9f" stop-opacity="1"/>
    </linearGradient>
    <filter id="filter1" x="0" y="0" width="288" height="288" filterUnits="userSpaceOnUse" primitiveUnits="userSpaceOnUse" color-interpolation-filters="sRGB">
        <feGaussianBlur stdDeviation="2.8125"/>
        <feOffset dx="-0" dy="1.125" result="offsetblur"/>
        <feFlood flood-color="#000000" flood-opacity="0.5"/>
        <feComposite in2="offsetblur" operator="in"/>
        <feMerge>
            <feMergeNode/>
            <feMergeNode in="SourceGraphic"/>
        </feMerge>
    </filter>
    <path id="Retngulo-arredondado" fill="url(#linearGradient1)" fill-rule="evenodd" stroke="none" filter="url(#filter1)" d="M 103.5 0 C 46.33902 0 0 46.33902 0 103.5 L 0 184.5 C 0 241.66098 46.33902 288 103.5 288 L 184.5 288 C 241.66098 288 288 241.66098 288 184.5 L 288 103.5 C 288 46.33902 241.66098 0 184.5 0 Z"/>
    <filter id="filter2" x="0" y="0" width="288" height="288" filterUnits="userSpaceOnUse" primitiveUnits="userSpaceOnUse" color-interpolation-filters="sRGB">
        <feGaussianBlur stdDeviation="3.9375"/>
        <feOffset dx="-0" dy="1.125" result="offsetblur"/>
        <feFlood flood-color="#000000" flood-opacity="0.334843"/>
        <feComposite in2="offsetblur" operator="in"/>
        <feMerge>
            <feMergeNode/>
            <feMergeNode in="SourceGraphic"/>
        </feMerge>
    </filter>
    <path id="Traado" fill="#000099" stroke="none" filter="url(#filter2)" d="M 153.743988 150.977997 C 154.845078 150.975357 155.945465 151.034103 157.040009 151.154007 C 154.444824 149.529099 152.872009 146.679901 152.880005 143.617996 L 152.880005 118.306 C 152.880005 117.25 152.880005 116.354004 151.759995 116.354004 L 144.863998 116.354004 C 144.386703 116.385254 143.943726 116.612961 143.640518 116.98288 C 143.337296 117.352798 143.200974 117.831863 143.264008 118.306 L 143.264008 144.098007 C 143.292679 146.886734 143.983658 149.628723 145.279999 152.098007 C 148.037048 151.340363 150.884796 150.963531 153.743988 150.977997 Z M 218.480011 150.977997 L 218.480011 124.354004 L 224.352005 124.354004 C 227.951874 124.328613 231.404449 125.781738 233.902679 128.373749 C 236.400955 130.965775 237.725952 134.469498 237.567993 138.06601 C 237.72168 141.598923 236.417847 145.039948 233.961594 147.583939 C 231.505325 150.12793 228.112137 151.551666 224.576004 151.522003 C 229.134933 152.610916 233.496506 154.403046 237.503998 156.834 C 243.968231 152.951584 247.825027 145.87468 247.584015 138.337997 C 247.54631 132.4328 245.149826 126.787628 240.927811 122.658783 C 236.70578 118.529922 231.008575 116.259949 225.104004 116.354004 L 212.015991 116.354004 C 211.008011 116.354004 208.815994 117.281998 208.815994 118.306 L 208.815994 151.906006 C 211.800003 151.25386 214.850098 150.95314 217.904007 151.009995 C 218.287994 150.977997 216.880005 150.977997 218.480011 150.977997 Z M 180.080002 144.098007 L 180.080002 118.306 C 180.080002 117.281998 180.080002 116.354004 179.056 116.354004 L 172.160004 116.354004 C 171.686295 116.394196 171.248993 116.624313 170.947617 116.991989 C 170.646255 117.359665 170.506439 117.833618 170.559998 118.306 L 170.559998 143.729996 C 170.721344 148.008209 167.603653 151.707855 163.360001 152.274002 C 167.680008 153.617996 171.167999 155.778 174.992004 157.393997 C 178.656006 154.177994 180.080002 149.378006 180.080002 144.098007 Z M 189.680008 159.378006 C 194.480011 158.977997 197.680008 157.778 199.279999 156.466003 L 199.279999 118.705994 C 199.279999 117.649994 199.136002 116.354004 198.080002 116.354004 L 190.656006 116.354004 C 189.600006 116.354004 189.680008 117.649994 189.680008 118.705994 L 189.680008 159.378006 Z M 71.279999 157.378006 L 71.279999 152.050003 C 71.309395 150.965881 70.488541 150.046799 69.408005 149.953995 L 53.68 149.953995 L 53.68 118.306 C 53.673241 117.267563 52.860779 116.413086 51.823997 116.354004 L 46.112 116.354004 C 45.026806 116.369232 44.138786 117.22229 44.079998 118.306 L 44.079998 154.369995 C 48.831173 157.54248 54.370728 159.331757 60.079998 159.537994 C 63.923332 159.609512 67.738899 158.873642 71.279999 157.378006 Z M 85.68 118.705994 C 85.453438 117.465744 84.450508 116.514587 83.199997 116.354004 L 78.400002 116.354004 C 77.184586 116.52478 76.234116 117.488358 76.080002 118.705994 L 76.080002 154.369995 C 79.083122 152.831604 82.331993 151.829865 85.68 151.410004 L 85.68 118.705994 Z M 265.808014 186.65799 C 256.457489 192.102631 244.902512 192.102631 235.552002 186.65799 C 225.341949 180.75177 212.754059 180.75177 202.543991 186.65799 C 193.193497 192.102631 181.638504 192.102631 172.287994 186.65799 C 162.078827 180.748444 149.489166 180.748444 139.279999 186.65799 C 134.741852 189.454468 129.488876 190.871948 124.159996 190.738007 C 118.831337 190.870087 113.578873 189.452759 109.040001 186.65799 C 104.077904 183.634491 98.353233 182.096436 92.543999 182.225998 C 86.734116 182.091034 81.00795 183.629486 76.047997 186.65799 C 71.509865 189.454468 66.256882 190.871948 60.928001 190.738007 C 55.599224 190.871017 50.346504 189.453613 45.807999 186.65799 C 40.848049 183.629486 35.121883 182.091034 29.312 182.225998 C 23.496708 182.087952 17.764559 183.626526 12.8 186.65799 C 9.841182 188.429382 6.59036 189.659271 3.2 190.290009 L 3.2 193.25 C 7.080272 192.610474 10.804465 191.242401 14.176001 189.218002 C 18.714138 186.421524 23.967115 185.004059 29.296 185.138 C 34.624775 185.004974 39.877495 186.422379 44.416 189.218002 C 49.375954 192.246506 55.102119 193.784973 60.911999 193.649994 C 66.727295 193.788055 72.459442 192.249481 77.423996 189.218002 C 81.962135 186.421524 87.215118 185.004059 92.543999 185.138 C 97.872772 185.004974 103.125496 186.422379 107.664001 189.218002 C 112.626099 192.241501 118.350769 193.779556 124.159996 193.649994 C 129.969879 193.784973 135.696045 192.246506 140.656006 189.218002 C 150.0065 183.773376 161.561493 183.773376 170.912003 189.218002 C 181.12204 195.124237 193.709946 195.124237 203.919998 189.218002 C 213.270508 183.773376 224.825485 183.773376 234.175995 189.218002 C 244.386063 195.124237 256.973938 195.124237 267.184021 189.218002 C 271.722504 186.422379 276.97522 185.004974 282.304016 185.138 L 283.343994 185.138 L 283.343994 182.274002 L 282.304016 182.274002 C 276.499512 182.130005 270.775177 183.651306 265.808014 186.65799 Z"/>
    <filter id="filter3" x="0" y="0" width="288" height="288" filterUnits="userSpaceOnUse" primitiveUnits="userSpaceOnUse" color-interpolation-filters="sRGB">
        <feGaussianBlur stdDeviation="3.9375"/>
        <feOffset dx="-0" dy="1.125" result="offsetblur"/>
        <feFlood flood-color="#000000" flood-opacity="0.334843"/>
        <feComposite in2="offsetblur" operator="in"/>
        <feMerge>
            <feMergeNode/>
            <feMergeNode in="SourceGraphic"/>
        </feMerge>
    </filter>
    <path id="path1" fill="#000099" stroke="none" filter="url(#filter3)" d="M 282.304016 158.977997 C 276.487549 158.860443 270.760437 160.421371 265.808014 163.473999 C 256.460236 168.928711 244.89978 168.928711 235.552002 163.473999 C 225.341064 157.571075 212.754929 157.571075 202.543991 163.473999 C 193.193497 168.91864 181.638504 168.91864 172.287994 163.473999 C 162.078827 157.564453 149.489166 157.564453 139.279999 163.473999 C 138.192001 164.050003 137.119995 164.626007 136 165.074005 L 129.600006 156.033997 C 134.77121 151.79158 137.794983 145.474487 137.856003 138.785995 C 137.7957 129.016418 131.572113 120.350204 122.333862 117.171707 C 113.095596 113.99321 102.857346 116.995605 96.798767 124.659943 C 90.740196 132.32428 90.182571 142.979111 95.408005 151.233994 C 106.223999 152.722 108.112 159.009995 121.007996 159.393997 L 125.280006 167.393997 L 124.223999 167.393997 C 118.89534 167.526093 113.642868 166.108765 109.104004 163.313995 C 104.141899 160.290497 98.417229 158.752441 92.608002 158.882004 C 86.798111 158.74704 81.071945 160.285492 76.112 163.313995 C 71.573868 166.110474 66.320885 167.527954 60.991997 167.393997 C 55.663227 167.527008 50.410503 166.109619 45.872002 163.313995 C 40.912048 160.285492 35.185883 158.74704 29.376001 158.882004 C 23.521524 158.784348 17.764126 160.384857 12.8 163.48999 C 9.842433 165.267273 6.591496 166.50264 3.2 167.138 L 3.2 170.097992 C 7.081471 169.453918 10.805797 168.080368 14.176001 166.050003 C 18.714138 163.253525 23.967115 161.83606 29.296 161.970001 C 34.624775 161.836975 39.877495 163.254379 44.416 166.050003 C 49.375954 169.078506 55.102119 170.616959 60.911999 170.481995 C 66.721878 170.616959 72.448044 169.078506 77.408005 166.050003 C 81.946136 163.253525 87.199112 161.83606 92.528 161.970001 C 97.856773 161.836975 103.109497 163.254379 107.647995 166.050003 C 112.614708 169.076462 118.34536 170.614624 124.159996 170.481995 C 129.969879 170.616959 135.696045 169.078506 140.656006 166.050003 C 150.0065 160.605377 161.561493 160.605377 170.912003 166.050003 C 181.12204 171.956238 193.709946 171.956238 203.919998 166.050003 C 213.270508 160.605377 224.825485 160.605377 234.175995 166.050003 C 244.386063 171.956238 256.973938 171.956238 267.184021 166.050003 C 271.722504 163.254379 276.97522 161.836975 282.304016 161.970001 L 283.343994 161.970001 L 283.343994 158.977997 Z M 114.816002 152.354004 C 107.525696 152.103241 101.745308 146.120621 101.745308 138.826004 C 101.745308 131.531387 107.525696 125.548752 114.816002 125.298004 C 122.257141 125.418793 128.250336 131.440369 128.335999 138.882004 C 128.309555 146.330139 122.264183 152.35405 114.816002 152.354004 Z"/>
    <filter id="filter4" x="0" y="0" width="288" height="288" filterUnits="userSpaceOnUse" primitiveUnits="userSpaceOnUse" color-interpolation-filters="sRGB">
        <feGaussianBlur stdDeviation="3.9375"/>
        <feOffset dx="-0" dy="1.125" result="offsetblur"/>
        <feFlood flood-color="#000000" flood-opacity="0.334843"/>
        <feComposite in2="offsetblur" operator="in"/>
        <feMerge>
            <feMergeNode/>
            <feMergeNode in="SourceGraphic"/>
        </feMerge>
    </filter>
    <path id="path2" fill="#000099" stroke="none" filter="url(#filter4)" d="M 265.808014 175.074005 C 256.457489 180.518631 244.902512 180.518631 235.552002 175.074005 C 225.341949 169.16777 212.754059 169.16777 202.543991 175.074005 C 193.193497 180.518631 181.638504 180.518631 172.287994 175.074005 C 162.078827 169.164459 149.489166 169.164459 139.279999 175.074005 C 134.741852 177.870483 129.488876 179.287933 124.159996 179.153992 C 118.831223 179.287018 113.578506 177.869629 109.040001 175.074005 C 104.077904 172.050507 98.353233 170.512451 92.543999 170.641998 C 86.734116 170.50705 81.00795 172.045502 76.047997 175.074005 C 71.509865 177.870483 66.256882 179.287933 60.928001 179.153992 C 55.599224 179.287018 50.346504 177.869629 45.807999 175.074005 C 40.848049 172.045502 35.121883 170.50705 29.312 170.641998 C 23.496708 170.503952 17.764559 172.042526 12.8 175.074005 C 9.842433 176.851288 6.591496 178.086639 3.2 178.722 L 3.2 181.682007 C 7.081471 181.037918 10.805797 179.664368 14.176001 177.634003 C 18.714138 174.837524 23.967115 173.420059 29.296 173.554001 C 34.624775 173.42099 39.877495 174.838379 44.416 177.634003 C 49.375954 180.662506 55.102119 182.200958 60.911999 182.06601 C 66.721878 182.200958 72.448044 180.662506 77.408005 177.634003 C 81.946136 174.837524 87.199112 173.420059 92.528 173.554001 C 97.856773 173.42099 103.109497 174.838379 107.647995 177.634003 C 112.614708 180.660461 118.34536 182.198639 124.159996 182.06601 C 129.969879 182.200958 135.696045 180.662506 140.656006 177.634003 C 150.0065 172.189362 161.561493 172.189362 170.912003 177.634003 C 181.12204 183.540222 193.709946 183.540222 203.919998 177.634003 C 213.270508 172.189362 224.825485 172.189362 234.175995 177.634003 C 244.386063 183.540222 256.973938 183.540222 267.184021 177.634003 C 271.722504 174.838379 276.97522 173.42099 282.304016 173.554001 L 283.343994 173.554001 L 283.343994 170.690002 L 282.304016 170.690002 C 276.499512 170.546021 270.775177 172.067322 265.808014 175.074005 Z"/>
</svg>
